<?xml version="1.0" encoding="UTF-8" standalone="no"?>
<svg
   xmlns:dc="http://purl.org/dc/elements/1.1/"
   xmlns:cc="http://creativecommons.org/ns#"
   xmlns:rdf="http://www.w3.org/1999/02/22-rdf-syntax-ns#"
   xmlns:svg="http://www.w3.org/2000/svg"
   xmlns="http://www.w3.org/2000/svg"
   xmlns:sodipodi="http://sodipodi.sourceforge.net/DTD/sodipodi-0.dtd"
   xmlns:inkscape="http://www.inkscape.org/namespaces/inkscape"
   version="1.1"
   viewBox="0 0 630 630"
   id="svg2"
   inkscape:version="0.48.2 r9819"
   width="100%"
   height="100%"
   sodipodi:docname="hu.js-logo.1.svg">
  <metadata
     id="metadata12">
    <rdf:RDF>
      <cc:Work
         rdf:about="">
        <dc:format>image/svg+xml</dc:format>
        <dc:type
           rdf:resource="http://purl.org/dc/dcmitype/StillImage" />
        <dc:title />
      </cc:Work>
    </rdf:RDF>
  </metadata>
  <defs
     id="defs10" />
  <sodipodi:namedview
     pagecolor="#ffffff"
     bordercolor="#666666"
     borderopacity="1"
     objecttolerance="10"
     gridtolerance="10"
     guidetolerance="10"
     inkscape:pageopacity="0"
     inkscape:pageshadow="2"
     inkscape:window-width="1495"
     inkscape:window-height="1230"
     id="namedview8"
     showgrid="false"
     showguides="false"
     inkscape:guide-bbox="true"
     inkscape:zoom="1.0595378"
     inkscape:cx="436.20287"
     inkscape:cy="351.60756"
     inkscape:window-x="0"
     inkscape:window-y="0"
     inkscape:window-maximized="0"
     inkscape:current-layer="svg2">
    <sodipodi:guide
       orientation="0,1"
       position="-299.18707,47.190389"
       id="guide5427" />
    <sodipodi:guide
       orientation="0,1"
       position="-25.48281,345.43365"
       id="guide5429" />
  </sodipodi:namedview>
  <!--
  DO WHAT THE FUCK YOU WANT TO PUBLIC LICENSE
  Version 2, December 2004

  Copyright (C) 2011 Christopher Williams <chris@iterativedesigns.com>,
                     Manuel Strehl <boldewyn@gmail.com>

  Everyone is permitted to copy and distribute verbatim or modified
  copies of this license document, and changing it is allowed as long
  as the name is changed.

  DO WHAT THE FUCK YOU WANT TO PUBLIC LICENSE
  TERMS AND CONDITIONS FOR COPYING, DISTRIBUTION AND MODIFICATION

  0. You just DO WHAT THE FUCK YOU WANT TO.
-->
  <rect
     style="fill:#f7df1e"
     height="630"
     width="630"
     y="0"
     x="0"
     id="background" />
  <path
     inkscape:connector-curvature="0"
     d="m 165.65,526.47375 48.2125,-29.1775 C 223.16375,513.7875 231.625,527.74 251.92,527.74 c 19.45375,0 31.71875,-7.60975 31.71875,-37.21 l 0,-201.3 59.20375,0 0,202.1375 c 0,61.32 -35.94375,89.23125 -88.385,89.23125 -47.36125,0 -74.8525,-24.52875 -88.8075,-54.13"
     id="j" />
  <path
     inkscape:connector-curvature="0"
     d="m 375,520.13 48.20625,-27.91125 c 12.69,20.72375 29.1825,35.9475 58.36125,35.9475 24.53125,0 40.17375,-12.26475 40.17375,-29.18125 0,-20.29875 -16.06875,-27.48875 -43.135,-39.32625 l -14.7975,-6.3475 c -42.715,-18.18125 -71.05,-41.0175 -71.05,-89.2275 0,-44.40375 33.83125,-78.2375 86.695,-78.2375 37.6375,0 64.7025,13.11125 84.15375,47.36625 l -46.09625,29.60125 c -10.15,-18.1825 -21.1425,-25.37125 -38.0575,-25.37125 -17.33875,0 -28.335,10.995 -28.335,25.37125 0,17.7625 10.99625,24.9525 36.3675,35.94875 l 14.8,6.3425 c 50.325,21.56875 78.66,43.5575 78.66,93.03375 0,53.2875 -41.86625,82.465 -98.11,82.465 -54.97625,0 -90.5,-26.2175 -107.83625,-60.47375"
     id="s" />
  <flowRoot
     xml:space="preserve"
     id="flowRoot3799"
     style="fill:black;stroke:none;stroke-opacity:1;stroke-width:1px;stroke-linejoin:miter;stroke-linecap:butt;fill-opacity:1;font-family:Bitstream Vera Sans;font-style:normal;font-weight:normal;font-size:40px;line-height:125%;letter-spacing:0px;word-spacing:0px;-inkscape-font-specification:Bitstream Vera Sans;font-stretch:normal;font-variant:normal"><flowRegion
       id="flowRegion3801"><rect
         id="rect3803"
         width="281.25473"
         height="126.47025"
         x="-806.01184"
         y="-504.45694" /></flowRegion><flowPara
       id="flowPara3805" /></flowRoot>  <g
     id="g5254"
     transform="matrix(1.6523173,0,0,1.6523173,538.40477,-81.731741)"
     style="fill:#000000">
    <path
       inkscape:connector-curvature="0"
       id="path3807"
       d="m -311.92847,241.6231 21.23567,20.76377 11.7976,-12.2695 -20.76377,-21.23568 z"
       style="fill:#000000;stroke:none" />
    <path
       inkscape:connector-curvature="0"
       id="path5243"
       d="m -304.84991,187.35415 17.46044,23.12329 13.21331,-9.90998 -16.04473,-23.59519 z"
       style="fill:#000000;stroke:none" />
    <path
       inkscape:connector-curvature="0"
       id="path5245"
       d="m -248.22145,183.10702 11.7976,30.20184 15.10093,-6.60665 -9.43808,-30.20185 z"
       style="fill:#000000;stroke:none" />
    <path
       inkscape:connector-curvature="0"
       id="path5247"
       d="m -294.93993,277.9597 -16.98854,112.31312 18.40425,7.07856 13.68521,-112.31312 z"
       style="fill:#000000;stroke:none" />
    <path
       id="path5249"
       d="m -197.25,221.5625 -70.6875,0.125 -0.28125,128.46875 c -1.71096,19.26989 -8.2207,32.94544 -15.28125,43.4375 l 15,8.46875 c 8.56206,-12.43983 15.49028,-30.8786 17.78125,-50.84375 l 0.0312,-43.84375 c -0.25634,-2.35402 0.50381,-3.89731 3.5625,-4.375 l 27.6875,-0.0312 c 3.49322,0.1164 4.75124,3.85667 4,8.375 l 18.21875,0.125 -0.0312,-89.90625 z m -49.5,18.34375 28.53125,0 c 1.97166,0.20756 4.0626,0.10602 4.3125,4.1875 l -0.15625,36.53125 c -0.25825,4.31798 -2.55792,4.95665 -5,5.34375 L -246.75,285.8125 c -3.4538,-0.43371 -3.75935,-2.6811 -4.1875,-4.84375 L -250.75,243.75 c 0.67782,-3.2499 2.49448,-3.07693 4,-3.84375 z"
       style="fill:#000000;stroke:none"
       inkscape:connector-curvature="0" />
  </g>
</svg>
