<?xml version="1.0" encoding="UTF-8" standalone="no"?>
<!-- Created with Inkscape (http://www.inkscape.org/) -->

<svg
   xmlns:dc="http://purl.org/dc/elements/1.1/"
   xmlns:cc="http://creativecommons.org/ns#"
   xmlns:rdf="http://www.w3.org/1999/02/22-rdf-syntax-ns#"
   xmlns:svg="http://www.w3.org/2000/svg"
   xmlns="http://www.w3.org/2000/svg"
   version="1.2"
   width="100%"
   height="100%"
   viewBox="0 0 168.46875 168.46875"
   id="svg2">
  <metadata
     id="metadata12">
    <rdf:RDF>
      <cc:Work
         rdf:about="">
        <dc:format>image/svg+xml</dc:format>
        <dc:type
           rdf:resource="http://purl.org/dc/dcmitype/StillImage" />
        <dc:title></dc:title>
      </cc:Work>
    </rdf:RDF>
  </metadata>
  <defs
     id="defs10" />
  <flowRoot
     transform="translate(-256.27266,-131.6523)"
     id="flowRoot3799"
     xml:space="preserve"
     style="font-size:40px;font-style:normal;font-variant:normal;font-weight:normal;font-stretch:normal;line-height:125%;letter-spacing:0px;word-spacing:0px;fill:#000000;fill-opacity:1;stroke:none;font-family:Bitstream Vera Sans;-inkscape-font-specification:Bitstream Vera Sans"><flowRegion
       id="flowRegion3801"><rect
         width="281.25473"
         height="126.47025"
         x="-806.01184"
         y="-504.45694"
         id="rect3803" /></flowRegion><flowPara
       id="flowPara3805" /></flowRoot>  <path
     d="M 15,0 C 6.69,0 0,6.69 0,15 l 0,138.46875 c 0,8.31 6.69,15 15,15 l 138.46875,0 c 8.31,0 15,-6.69 15,-15 l 0,-138.46875 c 0,-8.31 -6.69,-15 -15,-15 L 15,0 z m 50.78125,77.03125 3.3125,10.53125 -5.28125,2.3125 -4.125,-10.53125 6.09375,-2.3125 z m -20.75,0.15625 5.59375,8.25 -4.625,3.4375 -6.09375,-8.0625 5.125,-3.625 z M 77.5,92.75 l 0,31.40625 -6.375,-0.0312 c 0.26232,-1.57774 -0.15521,-2.89685 -1.375,-2.9375 l -9.6875,0 c -1.06805,0.1668 -1.33951,0.70926 -1.25,1.53125 l 0,15.3125 c -0.79998,6.97157 -3.22899,13.40618 -6.21875,17.75 L 47.375,152.8438 c 2.46545,-3.66369 4.74631,-8.45871 5.34375,-15.1875 l 0.0937,-44.84375 24.6875,-0.0625 z m 56.40625,0.3125 c 7.95398,0 13.67059,2.79209 17.78125,10.03125 l -9.75,6.25 c -2.14501,-3.84253 -4.45658,-5.375 -8.03125,-5.375 -3.66423,0 -6,2.33685 -6,5.375 0,3.75378 2.32575,5.26989 7.6875,7.59375 l 3.125,1.34375 c 10.63526,4.55816 16.625,9.20036 16.625,19.65625 0,11.26133 -8.83267,17.4375 -20.71875,17.4375 -11.61821,0 -19.11755,-5.54183 -22.78125,-12.78125 l 10.1875,-5.90625 c 2.6818,4.37958 6.14612,7.59375 12.3125,7.59375 5.18423,0 8.5,-2.58126 8.5,-6.15625 0,-4.28976 -3.40505,-5.81086 -9.125,-8.3125 l -3.125,-1.34375 c -9.02702,-3.84227 -15,-8.6867 -15,-18.875 0,-9.38391 7.14072,-16.53125 18.3125,-16.53125 z m -41.375,0.71875 12.5,0 0,42.71875 c 0,12.95885 -7.60501,18.875 -18.6875,18.875 -10.00892,0 -15.80087,-5.18182 -18.75,-11.4375 l 10.1875,-6.1875 c 1.96565,3.48512 3.74228,6.4375 8.03125,6.4375 4.11119,0 6.71875,-1.58828 6.71875,-7.84375 l 0,-42.5625 z m -50.8125,1.53125 7.25,7.40625 -4.125,4.3125 -7.40625,-7.25 4.28125,-4.46875 z m 18.46875,3.84375 c -0.52571,0.26776 -1.13831,0.20893 -1.375,1.34375 l -0.0625,13 c 0.1495,0.75517 0.23148,1.53605 1.4375,1.6875 l 9.6875,0.0625 c 0.85274,-0.13517 1.65982,-0.36722 1.75,-1.875 l 0.0312,-12.75 c -0.0873,-1.4252 -0.81152,-1.39627 -1.5,-1.46875 l -9.96875,0 z m -16.8125,13.3125 5.28125,2.46875 -4.78125,39.21875 -6.4375,-2.46875 5.9375,-39.21875 z"
     id="background"
     style="fill:#f7df1e;fill-opacity:1" />
  <g
     transform="matrix(0.34918674,0,0,0.34918674,146.36295,15.3945)"
     id="g5254"
     style="fill:#000000" />
</svg>
