<?xml version="1.0" encoding="UTF-8" standalone="no"?>
<svg
   xmlns:dc="http://purl.org/dc/elements/1.1/"
   xmlns:cc="http://creativecommons.org/ns#"
   xmlns:rdf="http://www.w3.org/1999/02/22-rdf-syntax-ns#"
   xmlns:svg="http://www.w3.org/2000/svg"
   xmlns="http://www.w3.org/2000/svg"
   xmlns:sodipodi="http://sodipodi.sourceforge.net/DTD/sodipodi-0.dtd"
   xmlns:inkscape="http://www.inkscape.org/namespaces/inkscape"
   version="1.1"
   viewBox="0 0 630 630"
   id="svg2"
   inkscape:version="0.48.2 r9819"
   width="100%"
   height="100%"
   sodipodi:docname="hu.js-logo.3.svg"
   inkscape:export-filename="/Users/thoward/repo/thoward/hujsconf/public/images/hu.js-logo.3.png"
   inkscape:export-xdpi="90"
   inkscape:export-ydpi="90">
  <metadata
     id="metadata12">
    <rdf:RDF>
      <cc:Work
         rdf:about="">
        <dc:format>image/svg+xml</dc:format>
        <dc:type
           rdf:resource="http://purl.org/dc/dcmitype/StillImage" />
        <dc:title></dc:title>
      </cc:Work>
    </rdf:RDF>
  </metadata>
  <defs
     id="defs10" />
  <sodipodi:namedview
     pagecolor="#ffffff"
     bordercolor="#666666"
     borderopacity="1"
     objecttolerance="10"
     gridtolerance="10"
     guidetolerance="10"
     inkscape:pageopacity="0"
     inkscape:pageshadow="2"
     inkscape:window-width="1495"
     inkscape:window-height="1230"
     id="namedview8"
     showgrid="false"
     showguides="false"
     inkscape:guide-bbox="true"
     inkscape:zoom="1.0595378"
     inkscape:cx="436.20287"
     inkscape:cy="351.60756"
     inkscape:window-x="964"
     inkscape:window-y="48"
     inkscape:window-maximized="0"
     inkscape:current-layer="svg2">
    <sodipodi:guide
       orientation="0,1"
       position="-299.18707,47.190389"
       id="guide5427" />
    <sodipodi:guide
       orientation="0,1"
       position="-25.48281,345.43365"
       id="guide5429" />
  </sodipodi:namedview>
  <!--
  DO WHAT THE FUCK YOU WANT TO PUBLIC LICENSE
  Version 2, December 2004

  Copyright (C) 2011 Christopher Williams <chris@iterativedesigns.com>,
                     Manuel Strehl <boldewyn@gmail.com>

  Everyone is permitted to copy and distribute verbatim or modified
  copies of this license document, and changing it is allowed as long
  as the name is changed.

  DO WHAT THE FUCK YOU WANT TO PUBLIC LICENSE
  TERMS AND CONDITIONS FOR COPYING, DISTRIBUTION AND MODIFICATION

  0. You just DO WHAT THE FUCK YOU WANT TO.
-->
  <rect
     style="fill:#f7df1e"
     height="630"
     width="630"
     y="0"
     x="0"
     id="background" />
  <path
     inkscape:connector-curvature="0"
     d="m 250.65096,538.00432 38.34458,-23.20558 c 7.39752,13.1159 14.12696,24.21266 30.26807,24.21266 15.47204,0 25.2267,-6.05222 25.2267,-29.59402 l 0,-160.09883 47.08619,0 0,160.76491 c 0,48.7693 -28.58695,70.9678 -70.29476,70.9678 -37.66756,0 -59.53203,-19.50831 -70.63078,-43.05091"
     id="j" />
  <path
     inkscape:connector-curvature="0"
     d="m 417.15215,532.95898 38.33961,-22.1985 c 10.09267,16.48211 23.20956,28.58993 46.41613,28.58993 19.51031,0 31.95117,-9.75446 31.95117,-23.20856 0,-16.1441 -12.77987,-21.86248 -34.30632,-31.27714 l -11.76882,-5.04832 c -33.97228,-14.45999 -56.5078,-32.62222 -56.5078,-70.96482 0,-35.31539 26.90682,-62.2242 68.95066,-62.2242 29.93402,0 51.45948,10.4277 66.92954,37.67154 l -36.66148,23.5426 c -8.07254,-14.46099 -16.81515,-20.17838 -30.26806,-20.17838 -13.78994,0 -22.53552,8.7446 -22.53552,20.17838 0,14.12695 8.74558,19.84534 28.92396,28.59092 l 11.7708,5.04435 c 40.02471,17.15416 62.56023,34.64235 62.56023,73.99202 0,42.38086 -33.29726,65.58644 -78.02929,65.58644 -43.72396,0 -71.97687,-20.85142 -85.76481,-48.09626"
     id="s" />
  <flowRoot
     xml:space="preserve"
     id="flowRoot3799"
     style="fill:black;stroke:none;stroke-opacity:1;stroke-width:1px;stroke-linejoin:miter;stroke-linecap:butt;fill-opacity:1;font-family:Bitstream Vera Sans;font-style:normal;font-weight:normal;font-size:40px;line-height:125%;letter-spacing:0px;word-spacing:0px;-inkscape-font-specification:Bitstream Vera Sans;font-stretch:normal;font-variant:normal"><flowRegion
       id="flowRegion3801"><rect
         id="rect3803"
         width="281.25473"
         height="126.47025"
         x="-806.01184"
         y="-504.45694" /></flowRegion><flowPara
       id="flowPara3805" /></flowRoot>  <g
     id="g5254"
     transform="matrix(1.0515957,0,0,1.0515957,457.87473,160.00242)"
     style="fill:#000000"
     inkscape:export-filename="/Users/thoward/repo/thoward/hujsconf/public/images/hu.js-logo.3.png"
     inkscape:export-xdpi="90"
     inkscape:export-ydpi="90">
    <path
       inkscape:connector-curvature="0"
       id="path3807"
       d="m -311.92847,241.6231 21.23567,20.76377 11.7976,-12.2695 -20.76377,-21.23568 z"
       style="fill:#000000;stroke:none" />
    <path
       inkscape:connector-curvature="0"
       id="path5243"
       d="m -304.84991,187.35415 17.46044,23.12329 13.21331,-9.90998 -16.04473,-23.59519 z"
       style="fill:#000000;stroke:none" />
    <path
       inkscape:connector-curvature="0"
       id="path5245"
       d="m -248.22145,183.10702 11.7976,30.20184 15.10093,-6.60665 -9.43808,-30.20185 z"
       style="fill:#000000;stroke:none" />
    <path
       inkscape:connector-curvature="0"
       id="path5247"
       d="m -294.93993,277.9597 -16.98854,112.31312 18.40425,7.07856 13.68521,-112.31312 z"
       style="fill:#000000;stroke:none" />
    <path
       id="path5249"
       d="m -197.25,221.5625 -70.6875,0.125 -0.28125,128.46875 c -1.71096,19.26989 -8.2207,32.94544 -15.28125,43.4375 l 15,8.46875 c 8.56206,-12.43983 15.49028,-30.8786 17.78125,-50.84375 l 0.0312,-43.84375 c -0.25634,-2.35402 0.50381,-3.89731 3.5625,-4.375 l 27.6875,-0.0312 c 3.49322,0.1164 4.75124,3.85667 4,8.375 l 18.21875,0.125 -0.0312,-89.90625 z m -49.5,18.34375 28.53125,0 c 1.97166,0.20756 4.0626,0.10602 4.3125,4.1875 l -0.15625,36.53125 c -0.25825,4.31798 -2.55792,4.95665 -5,5.34375 L -246.75,285.8125 c -3.4538,-0.43371 -3.75935,-2.6811 -4.1875,-4.84375 L -250.75,243.75 c 0.67782,-3.2499 2.49448,-3.07693 4,-3.84375 z"
       style="fill:#000000;stroke:none"
       inkscape:connector-curvature="0" />
  </g>
</svg>
