<?xml version="1.0" encoding="UTF-8" standalone="no"?>
<svg
   xmlns:dc="http://purl.org/dc/elements/1.1/"
   xmlns:cc="http://creativecommons.org/ns#"
   xmlns:rdf="http://www.w3.org/1999/02/22-rdf-syntax-ns#"
   xmlns:svg="http://www.w3.org/2000/svg"
   xmlns="http://www.w3.org/2000/svg"
   xmlns:sodipodi="http://sodipodi.sourceforge.net/DTD/sodipodi-0.dtd"
   xmlns:inkscape="http://www.inkscape.org/namespaces/inkscape"
   version="1.1"
   viewBox="0 0 630 630"
   id="svg2"
   inkscape:version="0.48.2 r9819"
   width="100%"
   height="100%"
   sodipodi:docname="hu.js-logo.2.svg">
  <metadata
     id="metadata12">
    <rdf:RDF>
      <cc:Work
         rdf:about="">
        <dc:format>image/svg+xml</dc:format>
        <dc:type
           rdf:resource="http://purl.org/dc/dcmitype/StillImage" />
        <dc:title />
      </cc:Work>
    </rdf:RDF>
  </metadata>
  <defs
     id="defs10" />
  <sodipodi:namedview
     pagecolor="#ffffff"
     bordercolor="#666666"
     borderopacity="1"
     objecttolerance="10"
     gridtolerance="10"
     guidetolerance="10"
     inkscape:pageopacity="0"
     inkscape:pageshadow="2"
     inkscape:window-width="1495"
     inkscape:window-height="1230"
     id="namedview8"
     showgrid="false"
     showguides="false"
     inkscape:guide-bbox="true"
     inkscape:zoom="1.0595378"
     inkscape:cx="436.20287"
     inkscape:cy="351.60756"
     inkscape:window-x="917"
     inkscape:window-y="69"
     inkscape:window-maximized="0"
     inkscape:current-layer="svg2">
    <sodipodi:guide
       orientation="0,1"
       position="-299.18707,47.190389"
       id="guide5427" />
    <sodipodi:guide
       orientation="0,1"
       position="-25.48281,345.43365"
       id="guide5429" />
  </sodipodi:namedview>
  <!--
  DO WHAT THE FUCK YOU WANT TO PUBLIC LICENSE
  Version 2, December 2004

  Copyright (C) 2011 Christopher Williams <chris@iterativedesigns.com>,
                     Manuel Strehl <boldewyn@gmail.com>

  Everyone is permitted to copy and distribute verbatim or modified
  copies of this license document, and changing it is allowed as long
  as the name is changed.

  DO WHAT THE FUCK YOU WANT TO PUBLIC LICENSE
  TERMS AND CONDITIONS FOR COPYING, DISTRIBUTION AND MODIFICATION

  0. You just DO WHAT THE FUCK YOU WANT TO.
-->
  <rect
     style="fill:#f7df1e"
     height="630"
     width="630"
     y="0"
     x="0"
     id="background" />
  <path
     inkscape:connector-curvature="0"
     d="m 252.76057,538.24717 38.09967,-23.05736 c 7.35027,13.03212 14.03673,24.05801 30.07474,24.05801 15.37323,0 25.06558,-6.01357 25.06558,-29.40501 l 0,-159.07626 46.78545,0 0,159.73809 c 0,48.45781 -28.40436,70.51453 -69.84578,70.51453 -37.42698,0 -59.15179,-19.38372 -70.17966,-42.77595"
     id="j" />
  <path
     inkscape:connector-curvature="0"
     d="m 418.19831,533.23406 38.09473,-22.05672 c 10.02821,16.37683 23.06132,28.40732 46.11967,28.40732 19.3857,0 31.7471,-9.69215 31.7471,-23.06033 0,-16.04098 -12.69825,-21.72284 -34.08721,-31.07736 l -11.69364,-5.01608 c -33.75531,-14.36764 -56.14689,-32.41386 -56.14689,-70.51156 0,-35.08983 26.73496,-61.82678 68.51027,-61.82678 29.74283,0 51.13081,10.3611 66.50205,37.43093 l -36.42732,23.39224 c -8.02098,-14.36863 -16.70775,-20.0495 -30.07473,-20.0495 -13.70186,0 -22.39159,8.68874 -22.39159,20.0495 0,14.03672 8.68973,19.71858 28.73923,28.40831 l 11.69562,5.01213 c 39.76907,17.04459 62.16065,34.42108 62.16065,73.51943 0,42.11016 -33.08458,65.16753 -77.53091,65.16753 -43.44469,0 -71.51715,-20.71824 -85.21703,-47.78906"
     id="s" />
  <flowRoot
     xml:space="preserve"
     id="flowRoot3799"
     style="fill:black;stroke:none;stroke-opacity:1;stroke-width:1px;stroke-linejoin:miter;stroke-linecap:butt;fill-opacity:1;font-family:Bitstream Vera Sans;font-style:normal;font-weight:normal;font-size:40px;line-height:125%;letter-spacing:0px;word-spacing:0px;-inkscape-font-specification:Bitstream Vera Sans;font-stretch:normal;font-variant:normal"><flowRegion
       id="flowRegion3801"><rect
         id="rect3803"
         width="281.25473"
         height="126.47025"
         x="-806.01184"
         y="-504.45694" /></flowRegion><flowPara
       id="flowPara3805" /></flowRoot>  <g
     id="g5254"
     transform="matrix(1.3057351,0,0,1.3057351,547.32807,57.615978)"
     style="fill:#000000">
    <path
       inkscape:connector-curvature="0"
       id="path3807"
       d="m -311.92847,241.6231 21.23567,20.76377 11.7976,-12.2695 -20.76377,-21.23568 z"
       style="fill:#000000;stroke:none" />
    <path
       inkscape:connector-curvature="0"
       id="path5243"
       d="m -304.84991,187.35415 17.46044,23.12329 13.21331,-9.90998 -16.04473,-23.59519 z"
       style="fill:#000000;stroke:none" />
    <path
       inkscape:connector-curvature="0"
       id="path5245"
       d="m -248.22145,183.10702 11.7976,30.20184 15.10093,-6.60665 -9.43808,-30.20185 z"
       style="fill:#000000;stroke:none" />
    <path
       inkscape:connector-curvature="0"
       id="path5247"
       d="m -294.93993,277.9597 -16.98854,112.31312 18.40425,7.07856 13.68521,-112.31312 z"
       style="fill:#000000;stroke:none" />
    <path
       id="path5249"
       d="m -197.25,221.5625 -70.6875,0.125 -0.28125,128.46875 c -1.71096,19.26989 -8.2207,32.94544 -15.28125,43.4375 l 15,8.46875 c 8.56206,-12.43983 15.49028,-30.8786 17.78125,-50.84375 l 0.0312,-43.84375 c -0.25634,-2.35402 0.50381,-3.89731 3.5625,-4.375 l 27.6875,-0.0312 c 3.49322,0.1164 4.75124,3.85667 4,8.375 l 18.21875,0.125 -0.0312,-89.90625 z m -49.5,18.34375 28.53125,0 c 1.97166,0.20756 4.0626,0.10602 4.3125,4.1875 l -0.15625,36.53125 c -0.25825,4.31798 -2.55792,4.95665 -5,5.34375 L -246.75,285.8125 c -3.4538,-0.43371 -3.75935,-2.6811 -4.1875,-4.84375 L -250.75,243.75 c 0.67782,-3.2499 2.49448,-3.07693 4,-3.84375 z"
       style="fill:#000000;stroke:none"
       inkscape:connector-curvature="0" />
  </g>
</svg>
