<?xml version="1.0" encoding="UTF-8" standalone="no"?>
<svg
   xmlns:dc="http://purl.org/dc/elements/1.1/"
   xmlns:cc="http://creativecommons.org/ns#"
   xmlns:rdf="http://www.w3.org/1999/02/22-rdf-syntax-ns#"
   xmlns:svg="http://www.w3.org/2000/svg"
   xmlns="http://www.w3.org/2000/svg"
   xmlns:sodipodi="http://sodipodi.sourceforge.net/DTD/sodipodi-0.dtd"
   xmlns:inkscape="http://www.inkscape.org/namespaces/inkscape"
   version="1.1"
   viewBox="0 0 630 630"
   id="svg2"
   inkscape:version="0.48.2 r9819"
   width="100%"
   height="100%"
   sodipodi:docname="hu.js-logo.4.svg"
   inkscape:export-filename="/Users/thoward/repo/thoward/hujsconf/public/images/hu.js-logo.4.png"
   inkscape:export-xdpi="90"
   inkscape:export-ydpi="90">
  <metadata
     id="metadata12">
    <rdf:RDF>
      <cc:Work
         rdf:about="">
        <dc:format>image/svg+xml</dc:format>
        <dc:type
           rdf:resource="http://purl.org/dc/dcmitype/StillImage" />
        <dc:title></dc:title>
      </cc:Work>
    </rdf:RDF>
  </metadata>
  <defs
     id="defs10" />
  <sodipodi:namedview
     pagecolor="#ffffff"
     bordercolor="#666666"
     borderopacity="1"
     objecttolerance="10"
     gridtolerance="10"
     guidetolerance="10"
     inkscape:pageopacity="0"
     inkscape:pageshadow="2"
     inkscape:window-width="1495"
     inkscape:window-height="1230"
     id="namedview8"
     showgrid="false"
     showguides="false"
     inkscape:guide-bbox="true"
     inkscape:zoom="0.45254834"
     inkscape:cx="-180.79021"
     inkscape:cy="-68.676917"
     inkscape:window-x="0"
     inkscape:window-y="0"
     inkscape:window-maximized="0"
     inkscape:current-layer="svg2">
    <sodipodi:guide
       orientation="0,1"
       position="-299.18707,47.190389"
       id="guide5427" />
    <sodipodi:guide
       orientation="0,1"
       position="-25.48281,345.43365"
       id="guide5429" />
    <sodipodi:guide
       orientation="1,0"
       position="408.66877,643.67691"
       id="guide5641" />
    <sodipodi:guide
       orientation="1,0"
       position="448.3087,180.26729"
       id="guide5643" />
  </sodipodi:namedview>
  <!--
  DO WHAT THE FUCK YOU WANT TO PUBLIC LICENSE
  Version 2, December 2004

  Copyright (C) 2011 Christopher Williams <chris@iterativedesigns.com>,
                     Manuel Strehl <boldewyn@gmail.com>

  Everyone is permitted to copy and distribute verbatim or modified
  copies of this license document, and changing it is allowed as long
  as the name is changed.

  DO WHAT THE FUCK YOU WANT TO PUBLIC LICENSE
  TERMS AND CONDITIONS FOR COPYING, DISTRIBUTION AND MODIFICATION

  0. You just DO WHAT THE FUCK YOU WANT TO.
-->
  <rect
     style="fill:#f7df1e"
     height="630"
     width="630"
     y="0"
     x="0"
     id="background" />
  <path
     inkscape:connector-curvature="0"
     d="m 303.77396,301.9395 31.06099,-18.79766 c 5.99234,10.62452 11.44351,19.61344 24.5186,19.61344 12.53311,0 20.43486,-4.9026 20.43486,-23.9726 l 0,-129.68786 38.14211,0 0,130.22741 c 0,39.50552 -23.15682,57.48738 -56.94219,57.48738 -30.51256,0 -48.22383,-15.80269 -57.21437,-34.87334"
     id="j" />
  <path
     inkscape:connector-curvature="0"
     d="m 438.64804,297.85252 31.05695,-17.98187 c 8.17556,13.35131 18.80088,23.15924 37.59933,23.15924 15.8043,0 25.88201,-7.90159 25.88201,-18.80007 0,-13.0775 -10.35232,-17.70967 -27.78979,-25.336 l -9.53331,-4.08939 c -27.51921,-11.7133 -45.77408,-26.42559 -45.77408,-57.48496 0,-28.60719 21.79583,-50.40464 55.85339,-50.40464 24.24802,0 41.68469,8.44695 54.21619,30.51579 l -29.69759,19.07065 c -6.53915,-11.7141 -13.62109,-16.34547 -24.5186,-16.34547 -11.17052,0 -18.25487,7.08355 -18.25487,16.34547 0,11.44352 7.08435,16.07569 23.42982,23.16004 l 9.53493,4.08617 c 32.42196,13.89571 50.67683,28.06199 50.67683,59.93715 0,34.33055 -26.9724,53.1282 -63.20753,53.1282 -35.41854,0 -58.30477,-16.89066 -69.47368,-38.96031"
     id="s" />
  <flowRoot
     xml:space="preserve"
     id="flowRoot3799"
     style="fill:black;stroke:none;stroke-opacity:1;stroke-width:1px;stroke-linejoin:miter;stroke-linecap:butt;fill-opacity:1;font-family:Bitstream Vera Sans;font-style:normal;font-weight:normal;font-size:40px;line-height:125%;letter-spacing:0px;word-spacing:0px;-inkscape-font-specification:Bitstream Vera Sans;font-stretch:normal;font-variant:normal"><flowRegion
       id="flowRegion3801"><rect
         id="rect3803"
         width="281.25473"
         height="126.47025"
         x="-806.01184"
         y="-504.45694" /></flowRegion><flowPara
       id="flowPara3805" /></flowRoot>  <g
     id="g5254"
     transform="matrix(2.2962037,0,0,2.2962037,740.86742,-369.67943)"
     style="fill:#000000">
    <path
       inkscape:connector-curvature="0"
       id="path3807"
       d="m -311.92847,241.6231 21.23567,20.76377 11.7976,-12.2695 -20.76377,-21.23568 z"
       style="fill:#000000;stroke:none" />
    <path
       inkscape:connector-curvature="0"
       id="path5243"
       d="m -304.84991,187.35415 17.46044,23.12329 13.21331,-9.90998 -16.04473,-23.59519 z"
       style="fill:#000000;stroke:none" />
    <path
       inkscape:connector-curvature="0"
       id="path5245"
       d="m -248.22145,183.10702 11.7976,30.20184 15.10093,-6.60665 -9.43808,-30.20185 z"
       style="fill:#000000;stroke:none" />
    <path
       inkscape:connector-curvature="0"
       id="path5247"
       d="m -294.93993,277.9597 -16.98854,112.31312 18.40425,7.07856 13.68521,-112.31312 z"
       style="fill:#000000;stroke:none" />
    <path
       id="path5249"
       d="m -197.25,221.5625 -70.6875,0.125 -0.28125,128.46875 c -1.71096,19.26989 -8.2207,32.94544 -15.28125,43.4375 l 15,8.46875 c 8.56206,-12.43983 15.49028,-30.8786 17.78125,-50.84375 l 0.0312,-43.84375 c -0.25634,-2.35402 0.50381,-3.89731 3.5625,-4.375 l 27.6875,-0.0312 c 3.49322,0.1164 4.75124,3.85667 4,8.375 l 18.21875,0.125 -0.0312,-89.90625 z m -49.5,18.34375 28.53125,0 c 1.97166,0.20756 4.0626,0.10602 4.3125,4.1875 l -0.15625,36.53125 c -0.25825,4.31798 -2.55792,4.95665 -5,5.34375 L -246.75,285.8125 c -3.4538,-0.43371 -3.75935,-2.6811 -4.1875,-4.84375 L -250.75,243.75 c 0.67782,-3.2499 2.49448,-3.07693 4,-3.84375 z"
       style="fill:#000000;stroke:none"
       inkscape:connector-curvature="0" />
  </g>
</svg>
