<?xml version="1.0" encoding="UTF-8" standalone="no"?>
<svg
   xmlns:dc="http://purl.org/dc/elements/1.1/"
   xmlns:cc="http://creativecommons.org/ns#"
   xmlns:rdf="http://www.w3.org/1999/02/22-rdf-syntax-ns#"
   xmlns:svg="http://www.w3.org/2000/svg"
   xmlns="http://www.w3.org/2000/svg"
   xmlns:sodipodi="http://sodipodi.sourceforge.net/DTD/sodipodi-0.dtd"
   xmlns:inkscape="http://www.inkscape.org/namespaces/inkscape"
   version="1.1"
   viewBox="0 0 81.496063 81.496063"
   id="svg2"
   inkscape:version="0.48.2 r9819"
   width="100%"
   height="100%"
   sodipodi:docname="hu.js-logo.2.pdf">
  <metadata
     id="metadata12">
    <rdf:RDF>
      <cc:Work
         rdf:about="">
        <dc:format>image/svg+xml</dc:format>
        <dc:type
           rdf:resource="http://purl.org/dc/dcmitype/StillImage" />
        <dc:title></dc:title>
      </cc:Work>
    </rdf:RDF>
  </metadata>
  <defs
     id="defs10" />
  <sodipodi:namedview
     pagecolor="#ffffff"
     bordercolor="#666666"
     borderopacity="1"
     objecttolerance="10"
     gridtolerance="10"
     guidetolerance="10"
     inkscape:pageopacity="0"
     inkscape:pageshadow="2"
     inkscape:window-width="1495"
     inkscape:window-height="1230"
     id="namedview8"
     showgrid="false"
     showguides="false"
     inkscape:guide-bbox="true"
     inkscape:zoom="2.9968255"
     inkscape:cx="56.024801"
     inkscape:cy="114.17222"
     inkscape:window-x="932"
     inkscape:window-y="0"
     inkscape:window-maximized="0"
     inkscape:current-layer="svg2"
     fit-margin-top="0"
     fit-margin-left="0"
     fit-margin-right="0"
     fit-margin-bottom="0"
     units="mm">
    <sodipodi:guide
       orientation="0,1"
       position="-299.18707,47.19042"
       id="guide5427" />
    <sodipodi:guide
       orientation="0,1"
       position="-25.48281,345.43368"
       id="guide5429" />
  </sodipodi:namedview>
  <!--
  DO WHAT THE FUCK YOU WANT TO PUBLIC LICENSE
  Version 2, December 2004

  Copyright (C) 2011 Christopher Williams <chris@iterativedesigns.com>,
                     Manuel Strehl <boldewyn@gmail.com>

  Everyone is permitted to copy and distribute verbatim or modified
  copies of this license document, and changing it is allowed as long
  as the name is changed.

  DO WHAT THE FUCK YOU WANT TO PUBLIC LICENSE
  TERMS AND CONDITIONS FOR COPYING, DISTRIBUTION AND MODIFICATION

  0. You just DO WHAT THE FUCK YOU WANT TO.
-->
  <rect
     style="fill:#f7df1e"
     height="81.496063"
     width="81.496063"
     y="-1.059948e-05"
     x="0"
     id="background"
     rx="9.9212599"
     ry="9.9212599" />
  <path
     inkscape:connector-curvature="0"
     d="m 32.696812,69.626989 4.928528,-2.98267 c 0.950823,1.68582 1.815775,3.11211 3.890434,3.11211 1.988663,0 3.242454,-0.7779 3.242454,-3.80379 l 0,-20.57792 6.052111,0 0,20.66353 c 0,6.26845 -3.674355,9.12168 -9.035169,9.12168 -4.84151,0 -7.651806,-2.50746 -9.078358,-5.53345"
     id="j" />
  <path
     inkscape:connector-curvature="0"
     d="m 54.097644,68.978499 4.92789,-2.85323 c 1.297237,2.11849 2.983185,3.67474 5.965986,3.67474 2.507712,0 4.106768,-1.25377 4.106768,-2.98306 0,-2.07504 -1.642631,-2.81004 -4.409481,-4.02013 l -1.512676,-0.64888 c -4.366547,-1.85858 -7.263096,-4.19301 -7.263096,-9.12129 0,-4.53918 3.458403,-7.99784 8.862408,-7.99784 3.847498,0 6.614222,1.3403 8.602628,4.84202 l -4.712196,3.026 c -1.037584,-1.85871 -2.161295,-2.59358 -3.890432,-2.59358 -1.772456,0 -2.89655,1.12396 -2.89655,2.59358 0,1.81577 1.124094,2.55077 3.717674,3.67486 l 1.512931,0.64837 c 5.144481,2.20486 8.041029,4.45267 8.041029,9.51038 0,5.44732 -4.279782,8.43 -10.029308,8.43 -5.619954,0 -9.251374,-2.68009 -11.023575,-6.18194"
     id="s" />
  <flowRoot
     xml:space="preserve"
     id="flowRoot3799"
     style="font-size:40px;font-style:normal;font-variant:normal;font-weight:normal;font-stretch:normal;line-height:125%;letter-spacing:0px;word-spacing:0px;fill:#000000;fill-opacity:1;stroke:none;font-family:Bitstream Vera Sans;-inkscape-font-specification:Bitstream Vera Sans"
     transform="matrix(0.12935883,0,0,0.12935883,0,-3.1331901e-5)"><flowRegion
       id="flowRegion3801"><rect
         id="rect3803"
         width="281.25473"
         height="126.47025"
         x="-806.01184"
         y="-504.45694" /></flowRegion><flowPara
       id="flowPara3805" /></flowRoot>  <g
     id="g5254"
     transform="matrix(0.16890837,0,0,0.16890837,70.801719,7.4530987)"
     style="fill:#000000">
    <path
       inkscape:connector-curvature="0"
       id="path3807"
       d="m -311.92847,241.6231 21.23567,20.76377 11.7976,-12.2695 -20.76377,-21.23568 z"
       style="fill:#000000;stroke:none" />
    <path
       inkscape:connector-curvature="0"
       id="path5243"
       d="m -304.84991,187.35415 17.46044,23.12329 13.21331,-9.90998 -16.04473,-23.59519 z"
       style="fill:#000000;stroke:none" />
    <path
       inkscape:connector-curvature="0"
       id="path5245"
       d="m -248.22145,183.10702 11.7976,30.20184 15.10093,-6.60665 -9.43808,-30.20185 z"
       style="fill:#000000;stroke:none" />
    <path
       inkscape:connector-curvature="0"
       id="path5247"
       d="m -294.93993,277.9597 -16.98854,112.31312 18.40425,7.07856 13.68521,-112.31312 z"
       style="fill:#000000;stroke:none" />
    <path
       id="path5249"
       d="m -197.25,221.5625 -70.6875,0.125 -0.28125,128.46875 c -1.71096,19.26989 -8.2207,32.94544 -15.28125,43.4375 l 15,8.46875 c 8.56206,-12.43983 15.49028,-30.8786 17.78125,-50.84375 l 0.0312,-43.84375 c -0.25634,-2.35402 0.50381,-3.89731 3.5625,-4.375 l 27.6875,-0.0312 c 3.49322,0.1164 4.75124,3.85667 4,8.375 l 18.21875,0.125 -0.0312,-89.90625 z m -49.5,18.34375 28.53125,0 c 1.97166,0.20756 4.0626,0.10602 4.3125,4.1875 l -0.15625,36.53125 c -0.25825,4.31798 -2.55792,4.95665 -5,5.34375 L -246.75,285.8125 c -3.4538,-0.43371 -3.75935,-2.6811 -4.1875,-4.84375 L -250.75,243.75 c 0.67782,-3.2499 2.49448,-3.07693 4,-3.84375 z"
       style="fill:#000000;stroke:none"
       inkscape:connector-curvature="0" />
  </g>
</svg>
