<?xml version="1.0" encoding="UTF-8" standalone="no"?>
<!-- Created with Inkscape (http://www.inkscape.org/) -->

<svg
   xmlns:dc="http://purl.org/dc/elements/1.1/"
   xmlns:cc="http://creativecommons.org/ns#"
   xmlns:rdf="http://www.w3.org/1999/02/22-rdf-syntax-ns#"
   xmlns:svg="http://www.w3.org/2000/svg"
   xmlns="http://www.w3.org/2000/svg"
   xmlns:sodipodi="http://sodipodi.sourceforge.net/DTD/sodipodi-0.dtd"
   xmlns:inkscape="http://www.inkscape.org/namespaces/inkscape"
   width="560.23724"
   height="177.16536"
   id="svg5684"
   version="1.1"
   inkscape:version="0.48.2 r9819"
   sodipodi:docname="hujs-license-plate.svg">
  <defs
     id="defs5686" />
  <sodipodi:namedview
     id="base"
     pagecolor="#ffffff"
     bordercolor="#666666"
     borderopacity="1.0"
     inkscape:pageopacity="0.0"
     inkscape:pageshadow="2"
     inkscape:zoom="1.979899"
     inkscape:cx="221.8523"
     inkscape:cy="33.852103"
     inkscape:document-units="px"
     inkscape:current-layer="layer1"
     showgrid="false"
     showguides="false"
     inkscape:guide-bbox="true"
     inkscape:window-width="1908"
     inkscape:window-height="1075"
     inkscape:window-x="224"
     inkscape:window-y="114"
     inkscape:window-maximized="0"
     fit-margin-top="0"
     fit-margin-left="0"
     fit-margin-right="0"
     fit-margin-bottom="0"
     units="mm"
     showborder="false">
    <sodipodi:guide
       orientation="0,1"
       position="-12.142857,143.07126"
       id="guide6395" />
    <sodipodi:guide
       orientation="0,1"
       position="-12.5,4.4998555"
       id="guide6397" />
    <sodipodi:guide
       orientation="1,0"
       position="4.2857143,143.07126"
       id="guide6399" />
    <sodipodi:guide
       orientation="1,0"
       position="65.714286,253.78556"
       id="guide6407" />
    <sodipodi:guide
       orientation="1,0"
       position="34.285715,118.07126"
       id="guide6409" />
    <sodipodi:guide
       orientation="0,1"
       position="130.71429,123.07126"
       id="guide6413" />
    <sodipodi:guide
       orientation="0,1"
       position="89.285715,25.928356"
       id="guide6415" />
    <sodipodi:guide
       orientation="1,0"
       position="125,305.21416"
       id="guide6417" />
  </sodipodi:namedview>
  <metadata
     id="metadata5689">
    <rdf:RDF>
      <cc:Work
         rdf:about="">
        <dc:format>image/svg+xml</dc:format>
        <dc:type
           rdf:resource="http://purl.org/dc/dcmitype/StillImage" />
      </cc:Work>
    </rdf:RDF>
  </metadata>
  <g
     inkscape:label="Layer 1"
     inkscape:groupmode="layer"
     id="layer1"
     transform="translate(0.71428575,2916.7319)">
    <g
       id="g6720"
       transform="matrix(1.2011212,0,0,1.2011212,0.14365798,550.98481)">
      <flowRoot
         transform="translate(528.57143,-3380.3946)"
         style="font-size:40px;font-style:normal;font-variant:normal;font-weight:normal;font-stretch:normal;line-height:125%;letter-spacing:0px;word-spacing:0px;fill:#000000;fill-opacity:1;stroke:none;font-family:Bitstream Vera Sans;-inkscape-font-specification:Bitstream Vera Sans"
         id="flowRoot3799"
         xml:space="preserve"><flowRegion
           id="flowRegion3801"><rect
             y="-504.45694"
             x="-806.01184"
             height="126.47025"
             width="281.25473"
             id="rect3803" /></flowRegion><flowPara
           id="flowPara3805" /></flowRoot>      <rect
         rx="10"
         y="-2887.0664"
         x="-0.71428573"
         height="147.49998"
         width="466.42856"
         id="rect5692"
         style="fill:#0040da;fill-opacity:1;stroke:none" />
      <g
         id="g6708"
         transform="matrix(0.4341542,0,0,0.4341542,151.57913,-2939.063)"
         style="fill:#333333;stroke:#333333">
        <path
           inkscape:connector-curvature="0"
           id="path6710"
           d="m -311.92847,241.6231 21.23567,20.76377 11.7976,-12.2695 -20.76377,-21.23568 z"
           style="fill:#333333;stroke:#333333" />
        <path
           inkscape:connector-curvature="0"
           id="path6712"
           d="m -304.84991,187.35415 17.46044,23.12329 13.21331,-9.90998 -16.04473,-23.59519 z"
           style="fill:#333333;stroke:#333333" />
        <path
           inkscape:connector-curvature="0"
           id="path6714"
           d="m -248.22145,183.10702 11.7976,30.20184 15.10093,-6.60665 -9.43808,-30.20185 z"
           style="fill:#333333;stroke:#333333" />
        <path
           inkscape:connector-curvature="0"
           id="path6716"
           d="m -294.93993,277.9597 -16.98854,112.31312 18.40425,7.07856 13.68521,-112.31312 z"
           style="fill:#333333;stroke:#333333" />
        <path
           id="path6718"
           d="m -197.25,221.5625 -70.6875,0.125 -0.28125,128.46875 c -1.71096,19.26989 -8.2207,32.94544 -15.28125,43.4375 l 15,8.46875 c 8.56206,-12.43983 15.49028,-30.8786 17.78125,-50.84375 l 0.0312,-43.84375 c -0.25634,-2.35402 0.50381,-3.89731 3.5625,-4.375 l 27.6875,-0.0312 c 3.49322,0.1164 4.75124,3.85667 4,8.375 l 18.21875,0.125 -0.0312,-89.90625 z m -49.5,18.34375 28.53125,0 c 1.97166,0.20756 4.0626,0.10602 4.3125,4.1875 l -0.15625,36.53125 c -0.25825,4.31798 -2.55792,4.95665 -5,5.34375 L -246.75,285.8125 c -3.4538,-0.43371 -3.75935,-2.6811 -4.1875,-4.84375 L -250.75,243.75 c 0.67782,-3.2499 2.49448,-3.07693 4,-3.84375 z"
           style="fill:#333333;stroke:#333333"
           inkscape:connector-curvature="0" />
      </g>
      <g
         style="fill:#ececec;stroke:#ececec"
         transform="matrix(0.4341542,0,0,0.4341542,150.57879,-2940.0629)"
         id="g5254">
        <path
           style="fill:#ececec;stroke:#ececec"
           d="m -311.92847,241.6231 21.23567,20.76377 11.7976,-12.2695 -20.76377,-21.23568 z"
           id="path3807"
           inkscape:connector-curvature="0" />
        <path
           style="fill:#ececec;stroke:#ececec"
           d="m -304.84991,187.35415 17.46044,23.12329 13.21331,-9.90998 -16.04473,-23.59519 z"
           id="path5243"
           inkscape:connector-curvature="0" />
        <path
           style="fill:#ececec;stroke:#ececec"
           d="m -248.22145,183.10702 11.7976,30.20184 15.10093,-6.60665 -9.43808,-30.20185 z"
           id="path5245"
           inkscape:connector-curvature="0" />
        <path
           style="fill:#ececec;stroke:#ececec"
           d="m -294.93993,277.9597 -16.98854,112.31312 18.40425,7.07856 13.68521,-112.31312 z"
           id="path5247"
           inkscape:connector-curvature="0" />
        <path
           inkscape:connector-curvature="0"
           style="fill:#ececec;stroke:#ececec"
           d="m -197.25,221.5625 -70.6875,0.125 -0.28125,128.46875 c -1.71096,19.26989 -8.2207,32.94544 -15.28125,43.4375 l 15,8.46875 c 8.56206,-12.43983 15.49028,-30.8786 17.78125,-50.84375 l 0.0312,-43.84375 c -0.25634,-2.35402 0.50381,-3.89731 3.5625,-4.375 l 27.6875,-0.0312 c 3.49322,0.1164 4.75124,3.85667 4,8.375 l 18.21875,0.125 -0.0312,-89.90625 z m -49.5,18.34375 28.53125,0 c 1.97166,0.20756 4.0626,0.10602 4.3125,4.1875 l -0.15625,36.53125 c -0.25825,4.31798 -2.55792,4.95665 -5,5.34375 L -246.75,285.8125 c -3.4538,-0.43371 -3.75935,-2.6811 -4.1875,-4.84375 L -250.75,243.75 c 0.67782,-3.2499 2.49448,-3.07693 4,-3.84375 z"
           id="path5249" />
      </g>
      <path
         style="fill:none;stroke:#333333;stroke-width:2.99999952;stroke-linecap:butt;stroke-linejoin:round;stroke-miterlimit:4;stroke-opacity:1;stroke-dasharray:none;stroke-dashoffset:0"
         d="m 11.821427,-2881.7092 443.749853,0 c 4.92276,0.4172 6.27956,3.6079 6.96429,7.3214 l -0.71428,123.0357 c 0.14047,5.4074 -2.65457,7.5531 -6.78571,8.2143 l -445.7141527,0 c -3.6133805,-0.7243 -4.3152582,-3.1124 -4.642856,-5.7143 l 0,-126.0714 c 0.7066609,-4.1754 3.102876,-6.4198 7.1428557,-6.7857 z"
         id="path6692"
         inkscape:connector-curvature="0"
         sodipodi:nodetypes="ccccccccc" />
      <path
         sodipodi:nodetypes="ccccccccc"
         inkscape:connector-curvature="0"
         id="path6393"
         d="m 10.714286,-2882.6378 443.749994,0 c 4.92276,0.4172 6.27956,3.6079 6.96429,7.3214 l -0.71428,123.0357 c 0.14047,5.4074 -2.65457,7.5531 -6.78571,8.2143 l -445.7142943,0 c -3.6133813,-0.7243 -4.3152592,-3.1124 -4.6428571,-5.7143 l 0,-126.0714 c 0.7066611,-4.1754 3.102877,-6.4198 7.1428574,-6.7857 z"
         style="fill:none;stroke:#ececec;stroke-width:3;stroke-linecap:butt;stroke-linejoin:round;stroke-miterlimit:4;stroke-opacity:1;stroke-dasharray:none;stroke-dashoffset:0" />
      <flowRoot
         style="font-size:40px;font-style:normal;font-variant:normal;font-weight:normal;font-stretch:normal;line-height:125%;letter-spacing:0px;word-spacing:0px;fill:#000000;fill-opacity:1;stroke:none;font-family:Bitstream Vera Sans;-inkscape-font-specification:Bitstream Vera Sans"
         id="flowRoot6379"
         xml:space="preserve"><flowRegion
           id="flowRegion6381"><rect
             y="-2994.7808"
             x="226.42857"
             height="297.14285"
             width="9.2857141"
             id="rect6383" /></flowRegion><flowPara
           id="flowPara6385" /></flowRoot>      <path
         sodipodi:type="arc"
         style="fill:#333333;stroke:#333333;stroke-width:3;stroke-linejoin:round;stroke-miterlimit:4;stroke-opacity:1;stroke-dasharray:none;stroke-dashoffset:0"
         id="path6706"
         sodipodi:cx="149.28572"
         sodipodi:cy="-2907.6379"
         sodipodi:rx="6.4285712"
         sodipodi:ry="6.4285712"
         d="m 155.71429,-2907.6379 a 6.4285712,6.4285712 0 1 1 -12.85714,0 6.4285712,6.4285712 0 1 1 12.85714,0 z"
         transform="matrix(0.76111257,0,0,0.76111257,90.327297,-600.26457)" />
      <path
         transform="matrix(0.76111257,0,0,0.76111257,89.326837,-601.26501)"
         d="m 155.71429,-2907.6379 a 6.4285712,6.4285712 0 1 1 -12.85714,0 6.4285712,6.4285712 0 1 1 12.85714,0 z"
         sodipodi:ry="6.4285712"
         sodipodi:rx="6.4285712"
         sodipodi:cy="-2907.6379"
         sodipodi:cx="149.28572"
         id="path6425"
         style="fill:#ececec;stroke:#ececec;stroke-width:3;stroke-linejoin:round;stroke-miterlimit:4;stroke-opacity:1;stroke-dasharray:none;stroke-dashoffset:0"
         sodipodi:type="arc" />
      <text
         sodipodi:linespacing="125%"
         id="text6694"
         y="-2761.9702"
         x="222.05962"
         style="font-size:123.59487152px;font-style:normal;font-variant:normal;font-weight:normal;font-stretch:normal;line-height:125%;letter-spacing:0px;word-spacing:0px;fill:#333333;fill-opacity:1;stroke:#333333;font-family:License Plate;-inkscape-font-specification:License Plate"
         xml:space="preserve"><tspan
           y="-2761.9702"
           x="222.05962"
           id="tspan6696"
           sodipodi:role="line"
           dx="0"
           dy="0"
           style="letter-spacing:4.78999519px;fill:#333333;stroke:#333333">2012</tspan></text>
      <text
         xml:space="preserve"
         style="font-size:123.59499359px;font-style:normal;font-variant:normal;font-weight:normal;font-stretch:normal;line-height:125%;letter-spacing:0px;word-spacing:0px;fill:#ececec;fill-opacity:1;stroke:#ececec;font-family:License Plate;-inkscape-font-specification:License Plate"
         x="221.05972"
         y="-2762.9729"
         id="text6419"
         sodipodi:linespacing="125%"><tspan
           style="letter-spacing:4.78999996px;fill:#ececec;stroke:#ececec"
           dy="0"
           dx="0"
           sodipodi:role="line"
           id="tspan6421"
           x="221.05972"
           y="-2762.9729">2012</tspan></text>
      <text
         xml:space="preserve"
         style="font-size:123.59499359px;font-style:normal;font-variant:normal;font-weight:normal;font-stretch:normal;line-height:125%;letter-spacing:0px;word-spacing:0px;fill:#ececec;fill-opacity:1;stroke:#ececec;font-family:License Plate;-inkscape-font-specification:License Plate"
         x="77.059723"
         y="-2760.9729"
         id="text6688"
         sodipodi:linespacing="125%"><tspan
           sodipodi:role="line"
           id="tspan6690"
           x="77.059723"
           y="-2760.9729">JS</tspan></text>
      <text
         xml:space="preserve"
         style="font-size:123.59499359px;font-style:normal;font-variant:normal;font-weight:normal;font-stretch:normal;line-height:125%;letter-spacing:0px;word-spacing:0px;fill:#333333;fill-opacity:1;stroke:#333333;font-family:License Plate;-inkscape-font-specification:License Plate"
         x="78.060089"
         y="-2759.9731"
         id="text6702"
         sodipodi:linespacing="125%"><tspan
           sodipodi:role="line"
           id="tspan6704"
           x="78.060089"
           y="-2759.9731">JS</tspan></text>
      <text
         sodipodi:linespacing="125%"
         id="text6698"
         y="-2760.9729"
         x="77.059723"
         style="font-size:123.59499359px;font-style:normal;font-variant:normal;font-weight:normal;font-stretch:normal;line-height:125%;letter-spacing:0px;word-spacing:0px;fill:#ececec;fill-opacity:1;stroke:#ececec;font-family:License Plate;-inkscape-font-specification:License Plate"
         xml:space="preserve"><tspan
           y="-2760.9729"
           x="77.059723"
           id="tspan6700"
           sodipodi:role="line">JS</tspan></text>
    </g>
  </g>
</svg>
